<svg class="icon" xmlns="http://www.w3.org/2000/svg">
<g filter="url(#filter0_d_103_2937)">
<path d="M27.8173 3.97208C25.5312 1.74989 22.5139 0.367617 19.2855 0.0635597C16.0572 -0.240497 12.8202 0.552718 10.1326 2.30645C7.44491 4.06019 5.47507 6.66455 4.56263 9.67053C3.65019 12.6765 3.85234 15.8957 5.13421 18.7732C5.26782 19.0407 5.31166 19.3417 5.25961 19.6344L4.0335 25.3261C3.98626 25.5443 3.99591 25.7704 4.06157 25.9841C4.12724 26.1979 4.24686 26.3925 4.40969 26.5505C4.54318 26.6785 4.70211 26.779 4.87692 26.8461C5.05172 26.9132 5.23878 26.9454 5.42681 26.9407H5.70547L11.6688 25.7836C11.9719 25.7484 12.2793 25.7901 12.5606 25.9047C15.5401 27.1426 18.8736 27.3378 21.9863 26.4567C25.0989 25.5755 27.7957 23.6732 29.6117 21.0776C31.4277 18.4821 32.249 15.356 31.9342 12.2383C31.6193 9.12067 30.188 6.20676 27.887 3.99899L27.8173 3.97208ZM12.3934 14.8307C12.1178 14.8307 11.8484 14.7518 11.6193 14.604C11.3901 14.4561 11.2116 14.246 11.1061 14.0001C11.0006 13.7542 10.9731 13.4837 11.0268 13.2227C11.0806 12.9616 11.2133 12.7219 11.4081 12.5337C11.603 12.3455 11.8513 12.2174 12.1215 12.1655C12.3918 12.1135 12.672 12.1402 12.9266 12.242C13.1811 12.3439 13.3988 12.5163 13.5519 12.7376C13.7049 12.9589 13.7867 13.219 13.7867 13.4852C13.7867 13.842 13.6399 14.1843 13.3786 14.4366C13.1173 14.689 12.7629 14.8307 12.3934 14.8307V14.8307ZM17.9666 14.8307C17.691 14.8307 17.4216 14.7518 17.1925 14.604C16.9634 14.4561 16.7848 14.246 16.6793 14.0001C16.5739 13.7542 16.5463 13.4837 16.6001 13.2227C16.6538 12.9616 16.7865 12.7219 16.9814 12.5337C17.1762 12.3455 17.4245 12.2174 17.6948 12.1655C17.965 12.1135 18.2452 12.1402 18.4998 12.242C18.7544 12.3439 18.972 12.5163 19.1251 12.7376C19.2782 12.9589 19.3599 13.219 19.3599 13.4852C19.3599 13.842 19.2131 14.1843 18.9518 14.4366C18.6905 14.689 18.3361 14.8307 17.9666 14.8307ZM23.5398 14.8307C23.2643 14.8307 22.9949 14.7518 22.7657 14.604C22.5366 14.4561 22.358 14.246 22.2526 14.0001C22.1471 13.7542 22.1195 13.4837 22.1733 13.2227C22.2271 12.9616 22.3598 12.7219 22.5546 12.5337C22.7495 12.3455 22.9977 12.2174 23.268 12.1655C23.5383 12.1135 23.8184 12.1402 24.073 12.242C24.3276 12.3439 24.5452 12.5163 24.6983 12.7376C24.8514 12.9589 24.9331 13.219 24.9331 13.4852C24.9331 13.842 24.7863 14.1843 24.525 14.4366C24.2638 14.689 23.9094 14.8307 23.5398 14.8307Z" fill="black"/>
</g>
<defs>
<filter id="filter0_d_103_2937" x="0" y="0" width="36" height="35" filterUnits="userSpaceOnUse" color-interpolation-filters="sRGB">
<feFlood flood-opacity="0" result="BackgroundImageFix"/>
<feColorMatrix in="SourceAlpha" type="matrix" values="0 0 0 0 0 0 0 0 0 0 0 0 0 0 0 0 0 0 127 0" result="hardAlpha"/>
<feOffset dy="4"/>
<feGaussianBlur stdDeviation="2"/>
<feColorMatrix type="matrix" values="0 0 0 0 0 0 0 0 0 0 0 0 0 0 0 0 0 0 0.25 0"/>
<feBlend mode="normal" in2="BackgroundImageFix" result="effect1_dropShadow_103_2937"/>
<feBlend mode="normal" in="SourceGraphic" in2="effect1_dropShadow_103_2937" result="shape"/>
</filter>
</defs>
</svg>
