<svg class="icon" xmlns="http://www.w3.org/2000/svg">
<path d="M28.1914 23.55C27.2814 22.776 26.4847 21.8887 25.8228 20.912C25.1002 19.5638 24.667 18.0914 24.5489 16.5813V12.1337C24.5551 9.76182 23.6533 7.46943 22.013 5.6872C20.3726 3.90498 18.1066 2.75559 15.6407 2.45501V1.29357C15.6407 0.97479 15.508 0.669068 15.2717 0.443658C15.0354 0.218248 14.715 0.0916138 14.3809 0.0916138C14.0468 0.0916138 13.7264 0.218248 13.4901 0.443658C13.2538 0.669068 13.1211 0.97479 13.1211 1.29357V2.47301C10.6773 2.79527 8.43863 3.9516 6.81984 5.72784C5.20104 7.50407 4.31177 9.77985 4.31675 12.1337V16.5813C4.19856 18.0914 3.76544 19.5638 3.0428 20.912C2.39251 21.8865 1.60862 22.7736 0.711958 23.55C0.611299 23.6343 0.530626 23.7382 0.475304 23.8546C0.419983 23.9711 0.391283 24.0974 0.391113 24.2252V25.4497C0.391113 25.6885 0.490534 25.9175 0.667505 26.0863C0.844476 26.2552 1.0845 26.35 1.33478 26.35H27.5686C27.8188 26.35 28.0589 26.2552 28.2358 26.0863C28.4128 25.9175 28.5122 25.6885 28.5122 25.4497V24.2252C28.5121 24.0974 28.4834 23.9711 28.428 23.8546C28.3727 23.7382 28.292 23.6343 28.1914 23.55ZM2.35393 24.5493C3.23192 23.7401 4.00496 22.8333 4.65646 21.8483C5.56673 20.22 6.09784 18.4235 6.21351 16.5813V12.1337C6.17608 11.0785 6.36159 10.0269 6.75899 9.04159C7.15638 8.05625 7.75754 7.15729 8.52665 6.39823C9.29577 5.63916 10.2171 5.03553 11.2358 4.62327C12.2546 4.21101 13.3498 3.99856 14.4564 3.99856C15.563 3.99856 16.6582 4.21101 17.6769 4.62327C18.6957 5.03553 19.617 5.63916 20.3861 6.39823C21.1552 7.15729 21.7564 8.05625 22.1538 9.04159C22.5512 10.0269 22.7367 11.0785 22.6993 12.1337V16.5813C22.8149 18.4235 23.3461 20.22 24.2563 21.8483C24.9078 22.8333 25.6809 23.7401 26.5589 24.5493H2.35393Z" fill="black"/>
</svg>
