<svg class="icon" width="28" height="27" viewBox="0 0 28 27" fill="none" xmlns="http://www.w3.org/2000/svg">
<path d="M15.5092 2.46391e-06C15.9208 2.46391e-06 16.289 0.247049 16.4275 0.616945L17.4159 3.25886C17.7701 3.34391 18.0739 3.42896 18.3315 3.51806C18.6129 3.61526 18.9755 3.76241 19.4234 3.96355L21.725 2.78907C21.9128 2.69309 22.1279 2.65845 22.3379 2.69034C22.5479 2.72222 22.7415 2.81892 22.8897 2.96592L24.9141 4.98414C25.1828 5.25279 25.2584 5.64563 25.1072 5.98853L24.0279 8.42795C24.2071 8.7452 24.3499 9.01654 24.4591 9.24334C24.5767 9.49039 24.7223 9.83058 24.8959 10.2693L27.4116 11.3088C27.7896 11.4641 28.0233 11.8286 27.9982 12.2187L27.8134 15.0199C27.8007 15.2019 27.733 15.3763 27.6185 15.5215C27.504 15.6667 27.3479 15.7763 27.1694 15.8367L24.7867 16.6534C24.7181 16.9706 24.6467 17.242 24.5711 17.4715C24.4491 17.8259 24.3099 18.1746 24.1539 18.5164L25.3508 21.0678C25.4353 21.2471 25.4581 21.4478 25.4157 21.6404C25.3734 21.833 25.2683 22.0075 25.1156 22.1384L22.8393 24.0986C22.6894 24.2271 22.5023 24.3084 22.3032 24.3316C22.104 24.3547 21.9023 24.3187 21.725 24.2282L19.3786 23.0294C19.0116 23.2168 18.6329 23.3823 18.2447 23.5248L17.2199 23.8947L16.31 26.3247C16.2425 26.5026 16.1209 26.6568 15.961 26.7669C15.8011 26.877 15.6104 26.9379 15.414 26.9416L12.7541 26.9997C12.5524 27.0048 12.3541 26.9495 12.1864 26.8414C12.0187 26.7334 11.8898 26.5778 11.8175 26.3962L10.7451 23.6598C10.3793 23.5392 10.017 23.4087 9.65878 23.2683C9.36579 23.146 9.07723 23.0141 8.79361 22.8728L6.1337 23.969C5.95844 24.0411 5.76522 24.0625 5.57756 24.0306C5.3899 23.9987 5.2159 23.9149 5.07674 23.7894L3.10841 22.0088C2.96186 21.8768 2.86206 21.7037 2.82312 21.514C2.78418 21.3243 2.80807 21.1276 2.89141 20.9518L4.03518 18.5488C3.88306 18.2642 3.74203 17.9742 3.61239 17.6794C3.46106 17.3186 3.321 16.9535 3.1924 16.5846L0.686491 15.8488C0.482799 15.7894 0.305136 15.6669 0.181094 15.5001C0.0570517 15.3334 -0.0064276 15.1319 0.000514439 14.9268L0.0985111 12.3335C0.105486 12.1642 0.1603 12.0001 0.257025 11.8588C0.353749 11.7174 0.488703 11.6043 0.647292 11.5316L3.2764 10.3139C3.3982 9.88323 3.50459 9.54844 3.59839 9.30409C3.73046 8.97773 3.87713 8.65703 4.03798 8.3429L2.89841 6.02093C2.81193 5.8446 2.78567 5.64636 2.8234 5.45473C2.86114 5.26309 2.96092 5.08794 3.10841 4.95444L5.07394 3.16436C5.21172 3.03905 5.38413 2.9548 5.5704 2.92175C5.75668 2.88869 5.94889 2.90825 6.1239 2.97807L8.78101 4.03645C9.075 3.84746 9.34099 3.69491 9.58178 3.57206C9.86877 3.42491 10.2524 3.27101 10.7353 3.10497L11.6593 0.619645C11.7276 0.43776 11.8525 0.280639 12.0168 0.169737C12.1812 0.0588359 12.3771 -0.000440433 12.5777 2.46391e-06H15.5092ZM14.8232 1.85893H13.2651L12.4181 4.1458C12.3683 4.27915 12.2877 4.39984 12.1825 4.49877C12.0772 4.59769 11.95 4.67226 11.8105 4.71685C11.2001 4.91259 10.7591 5.08134 10.5016 5.21229C10.2286 5.35134 9.87997 5.56329 9.46559 5.84678C9.32996 5.93857 9.1725 5.99585 9.0078 6.01331C8.8431 6.03077 8.67649 6.00786 8.52342 5.94668L5.96151 4.92744L4.96334 5.83733L6.00351 7.95681C6.1295 8.2133 6.1267 8.5103 5.99511 8.76275C5.71512 9.30409 5.52612 9.70369 5.43093 9.94938C5.33573 10.1937 5.20833 10.6136 5.05294 11.1941C5.01777 11.3256 4.95318 11.4482 4.8637 11.5531C4.77422 11.6581 4.66202 11.7429 4.53496 11.8016L2.02904 12.9612L1.97865 14.2842L4.24657 14.9484C4.54756 15.0361 4.78555 15.2589 4.88495 15.5451C5.10894 16.1931 5.28813 16.671 5.41693 16.9706C5.58758 17.351 5.77631 17.7235 5.98251 18.0871C6.1239 18.3409 6.1337 18.6433 6.00911 18.9052L4.95774 21.1164L5.95311 22.0182L8.44782 20.9895C8.5822 20.9342 8.72768 20.9084 8.8737 20.914C9.01971 20.9196 9.16261 20.9565 9.29199 21.0219C9.80298 21.2811 10.1838 21.4607 10.4246 21.5592C10.6695 21.6578 11.1385 21.8225 11.8189 22.0466C11.954 22.0911 12.0772 22.1637 12.1798 22.2594C12.2824 22.3551 12.3619 22.4714 12.4125 22.6001L13.4037 25.1259L14.7 25.0989L15.5358 22.866C15.5836 22.7386 15.6595 22.6227 15.7584 22.5265C15.8573 22.4302 15.9767 22.3558 16.1084 22.3085L17.5601 21.7847C17.9269 21.6537 18.3721 21.4472 18.8915 21.1637C19.0352 21.0858 19.1969 21.044 19.3618 21.0421C19.5267 21.0402 19.6894 21.0783 19.835 21.1529L22.0428 22.2801L23.2845 21.2123L22.1981 18.8998C22.1424 18.7811 22.1134 18.6523 22.1131 18.5219C22.1129 18.3916 22.1414 18.2627 22.1967 18.1438C22.4515 17.5943 22.6237 17.1799 22.7105 16.9153C22.7959 16.6561 22.8841 16.2822 22.9695 15.8016C22.9989 15.6383 23.0729 15.4856 23.1839 15.3591C23.2949 15.2326 23.4388 15.137 23.6009 15.082L25.908 14.2923L26.0088 12.7533L23.7409 11.8164C23.6202 11.7668 23.5111 11.6941 23.4204 11.6027C23.3297 11.5113 23.2591 11.403 23.2131 11.2845C23.0514 10.8542 22.8749 10.4292 22.6839 10.0101C22.5031 9.64527 22.307 9.28768 22.096 8.93824C22.0228 8.81479 21.9804 8.67668 21.9719 8.53475C21.9634 8.39281 21.9891 8.25091 22.047 8.12015L23.0619 5.82518L21.9924 4.7587L19.9092 5.82248C19.7732 5.89204 19.6222 5.92986 19.4683 5.9329C19.3144 5.93595 19.1619 5.90414 19.0231 5.84003C18.5809 5.62804 18.1287 5.43613 17.6679 5.26494C17.275 5.1377 16.8743 5.03401 16.4681 4.95444C16.307 4.92149 16.1572 4.84956 16.0328 4.74542C15.9083 4.64128 15.8134 4.50834 15.757 4.3591L14.8218 1.85758L14.8232 1.85893ZM14.0336 7.61526C17.4425 7.61526 20.2074 10.2518 20.2074 13.5025C20.2074 16.7533 17.4425 19.3885 14.0336 19.3885C10.6233 19.3885 7.85984 16.7533 7.85984 13.5025C7.85984 10.2518 10.6233 7.61661 14.0336 7.61661V7.61526ZM14.0336 9.47554C11.6999 9.47554 9.80858 11.2778 9.80858 13.5025C9.80858 15.7273 11.6999 17.5309 14.0336 17.5309C16.3659 17.5309 18.2573 15.7273 18.2573 13.5025C18.2573 11.2778 16.3673 9.47554 14.0336 9.47554Z" fill="black"/>
</svg>
